<?xml version="1.0" standalone="no"?>
<!DOCTYPE svg PUBLIC "-//W3C//DTD SVG 20010904//EN"
 "http://www.w3.org/TR/2001/REC-SVG-20010904/DTD/svg10.dtd">
<svg version="1.0" xmlns="http://www.w3.org/2000/svg"
 width="1200.000000pt" height="1200.000000pt" viewBox="0 0 1200.000000 1200.000000"
 preserveAspectRatio="xMidYMid meet">

<g transform="translate(0.000000,1200.000000) scale(0.100000,-0.100000)"
fill="#000000" stroke="none">
<path d="M1878 6903 c-22 -6 -33 -40 -18 -58 11 -13 123 -15 790 -15 428 0
785 3 794 6 21 8 21 60 0 68 -18 7 -1540 6 -1566 -1z"/>
<path d="M4000 6788 c-6 -29 -41 -197 -78 -373 l-68 -320 94 -3 c112 -3 149
11 199 77 60 78 81 211 45 283 l-18 35 37 41 c42 44 60 97 62 178 2 97 -47
132 -185 133 l-77 1 -11 -52z m156 -86 c14 -28 2 -100 -22 -137 -16 -25 -59
-43 -71 -31 -5 5 19 144 33 184 6 21 47 10 60 -16z m-76 -292 c47 -47 0 -195
-67 -215 -29 -8 -29 -1 -1 132 23 109 31 120 68 83z"/>
<path d="M4386 6832 c-3 -5 -8 -28 -12 -50 l-7 -42 51 0 c49 0 50 0 56 36 4
19 10 42 13 50 4 11 -6 14 -45 14 -28 0 -53 -4 -56 -8z"/>
<path d="M4570 6836 c0 -4 -134 -641 -149 -708 l-9 -38 52 0 52 0 77 368 c43
202 77 370 77 375 0 4 -22 7 -50 7 -27 0 -50 -2 -50 -4z"/>
<path d="M4755 6828 c-5 -13 -155 -725 -155 -733 0 -3 22 -5 49 -5 l49 0 15
68 c9 37 33 149 53 249 21 100 40 180 42 178 5 -5 -15 -372 -24 -447 -6 -46
-5 -48 19 -48 29 0 18 -23 133 297 38 106 70 189 72 185 2 -7 -69 -357 -93
-460 -5 -22 -3 -23 46 -20 l52 3 72 340 c40 187 75 355 79 373 l8 32 -69 0
-68 0 -74 -185 c-41 -102 -76 -185 -78 -185 -2 0 -1 83 3 185 l7 185 -67 0
c-44 0 -68 -4 -71 -12z"/>
<path d="M1832 6773 c-13 -11 -33 -58 -52 -123 -35 -118 -34 -157 6 -215 l24
-36 0 -579 c0 -569 0 -580 20 -600 16 -16 25 -18 40 -10 20 10 20 23 20 568
l0 558 63 0 c66 1 125 23 161 63 l19 20 39 -34 c76 -65 190 -65 264 -1 l38 33
43 -33 c51 -39 118 -55 176 -42 47 10 103 42 116 66 7 13 15 10 51 -21 77 -66
180 -66 265 -2 38 29 45 32 56 19 7 -8 32 -27 56 -41 40 -23 51 -25 119 -20
l74 5 2 -560 c3 -522 4 -562 21 -572 12 -8 22 -8 35 0 16 10 17 52 20 614 1
358 6 608 12 614 5 7 13 32 19 56 8 36 5 66 -14 153 -12 59 -29 114 -35 122
-11 13 -122 15 -825 15 -760 0 -814 -1 -833 -17z m1619 -152 c19 -94 13 -134
-24 -169 -78 -74 -200 -29 -223 81 -8 38 -12 42 -39 42 -24 0 -31 -5 -39 -30
-21 -69 -30 -87 -59 -107 -37 -26 -105 -28 -141 -5 -32 22 -57 59 -65 99 -14
67 -69 62 -84 -8 -21 -102 -143 -144 -217 -74 -16 15 -32 40 -35 56 -13 61
-24 75 -52 72 -22 -3 -28 -10 -38 -51 -39 -155 -226 -150 -262 8 -8 36 -12 40
-38 40 -24 0 -31 -5 -38 -30 -19 -66 -42 -100 -80 -119 -46 -22 -94 -16 -135
19 -53 45 -57 71 -26 174 l27 91 776 -2 775 -3 17 -84z"/>
<path d="M5855 6758 c-3 -13 -9 -41 -13 -63 -7 -33 -12 -41 -34 -43 -27 -3
-31 -9 -43 -69 -6 -30 -5 -33 19 -33 14 0 26 -1 26 -3 0 -1 -16 -78 -35 -170
-41 -195 -43 -234 -14 -271 17 -22 28 -26 73 -26 l52 0 10 50 c10 48 10 49
-15 52 -38 4 -38 34 0 213 l32 155 33 0 c38 0 41 3 50 58 l7 42 -33 0 -33 0 7
43 c4 23 9 52 13 65 5 21 2 22 -46 22 -44 0 -51 -3 -56 -22z"/>
<path d="M4345 6638 c-5 -13 -115 -534 -115 -543 0 -3 22 -5 50 -5 43 0 50 3
55 23 3 12 28 130 56 262 27 132 52 248 55 258 5 15 -2 17 -46 17 -31 0 -52
-5 -55 -12z"/>
<path d="M5275 6631 c-40 -24 -71 -60 -84 -94 -19 -51 -15 -57 37 -57 48 0 49
0 61 40 10 33 16 40 37 40 25 0 25 -2 19 -42 -11 -63 -18 -73 -87 -110 -37
-21 -76 -52 -95 -77 -57 -74 -78 -194 -42 -237 19 -23 74 -17 108 12 30 25 31
25 31 5 0 -19 6 -21 50 -21 43 0 50 3 54 23 99 471 99 471 60 511 -33 32 -103
36 -149 7z m30 -303 c-3 -13 -10 -45 -15 -73 -13 -57 -25 -75 -52 -75 -26 0
-33 25 -18 72 19 64 99 134 85 76z"/>
<path d="M5555 6638 c-5 -13 -115 -534 -115 -543 0 -3 22 -5 49 -5 39 0 51 4
55 18 3 9 22 100 43 202 42 207 54 230 117 230 33 0 35 2 45 50 6 28 11 53 11
55 0 16 -54 1 -81 -22 l-32 -28 7 28 c6 27 6 27 -44 27 -31 0 -52 -5 -55 -12z"/>
<path d="M1989 6159 c-20 -20 -20 -26 -17 -455 3 -373 5 -436 18 -444 23 -15
443 -13 458 2 9 9 12 122 12 448 0 411 -1 438 -18 453 -16 15 -47 17 -225 17
-196 0 -208 -1 -228 -21z m391 -444 l0 -385 -165 0 -165 0 0 378 c0 208 3 382
7 385 3 4 78 7 165 7 l158 0 0 -385z"/>
<path d="M2250 5695 c-14 -17 -5 -51 16 -59 22 -8 54 11 54 32 0 38 -46 56
-70 27z"/>
<path d="M2558 6169 c-17 -9 -18 -42 -18 -452 0 -331 3 -446 12 -455 9 -9 109
-12 389 -12 330 0 380 2 393 16 14 14 16 68 16 442 0 371 -2 431 -16 450 l-15
22 -372 0 c-234 0 -378 -4 -389 -11z m710 -456 l2 -383 -325 0 -325 0 0 385 0
385 323 -2 322 -3 3 -382z"/>
<path d="M2840 5735 c-54 -55 -63 -68 -54 -83 23 -36 54 -27 115 34 59 59 69
80 47 102 -22 22 -43 12 -108 -53z"/>
<path d="M2981 5735 c-54 -56 -61 -67 -51 -85 19 -35 52 -24 113 38 57 58 72
94 41 106 -30 12 -41 5 -103 -59z"/>
<path d="M5316 5614 c-9 -8 -16 -22 -16 -29 0 -7 7 -21 16 -29 30 -30 74 -13
74 29 0 42 -44 59 -74 29z"/>
<path d="M6090 5415 l0 -215 25 0 c14 0 28 7 31 15 5 13 8 13 27 0 12 -8 41
-15 65 -15 54 0 95 36 112 100 37 138 -62 244 -167 180 l-33 -20 0 85 0 85
-30 0 -30 0 0 -215z m171 16 c19 -15 23 -28 23 -73 1 -72 -22 -108 -69 -108
-51 0 -65 21 -65 95 0 57 3 66 26 84 33 26 55 26 85 2z"/>
<path d="M6422 5618 c-21 -21 -14 -57 14 -70 23 -11 29 -10 45 11 23 28 23 35
3 55 -18 19 -45 21 -62 4z"/>
<path d="M6560 5415 l0 -215 35 0 35 0 0 215 0 215 -35 0 -35 0 0 -215z"/>
<path d="M6710 5615 c-17 -20 -4 -62 21 -70 15 -5 28 -1 42 14 18 17 19 24 9
46 -13 29 -52 34 -72 10z"/>
<path d="M9130 5415 l0 -215 30 0 30 0 0 109 c0 102 2 111 22 125 29 21 72 20
89 0 9 -11 15 -53 17 -125 l4 -109 29 0 29 0 0 115 c0 120 -12 166 -45 179
-29 11 -85 6 -115 -9 l-30 -16 0 81 0 80 -30 0 -30 0 0 -215z"/>
<path d="M3934 5587 c-45 -41 -55 -96 -25 -143 18 -30 40 -41 149 -79 7 -2 17
-16 24 -29 9 -20 8 -30 -6 -51 -20 -31 -76 -34 -132 -8 -35 17 -36 17 -50 -2
-8 -10 -13 -23 -11 -29 7 -22 74 -46 128 -46 72 0 118 29 137 85 25 76 -3 123
-90 155 -71 26 -98 45 -98 70 0 45 73 65 129 35 30 -15 35 -13 55 22 13 23
-53 53 -117 53 -51 0 -61 -4 -93 -33z"/>
<path d="M4835 5578 c-2 -7 -6 -30 -10 -50 -5 -32 -10 -38 -30 -38 -33 0 -35
-37 -2 -42 21 -3 22 -8 25 -108 3 -125 12 -140 82 -140 54 0 74 14 59 42 -7
13 -17 16 -34 12 -35 -9 -46 22 -43 114 l3 77 38 3 c28 2 37 8 37 22 0 14 -9
20 -37 22 -38 3 -38 3 -41 51 -3 39 -6 47 -23 47 -11 0 -21 -6 -24 -12z"/>
<path d="M6899 5588 c0 -2 -6 -23 -12 -48 -9 -35 -17 -46 -34 -48 -15 -2 -23
-10 -23 -22 0 -12 8 -20 23 -22 21 -3 22 -8 27 -111 4 -93 8 -111 24 -123 23
-16 79 -18 107 -4 29 16 8 53 -26 44 -35 -9 -46 22 -43 114 l3 77 38 3 c28 2
37 8 37 22 0 14 -9 20 -37 22 -38 3 -38 3 -41 51 -3 39 -6 47 -23 47 -10 0
-19 -1 -20 -2z"/>
<path d="M7815 5558 c-12 -60 -16 -68 -36 -68 -12 0 -19 -7 -19 -20 0 -13 7
-20 20 -20 19 0 20 -7 20 -105 0 -94 2 -107 21 -126 18 -18 30 -20 70 -17 27
3 53 8 56 12 14 14 -15 41 -43 41 l-29 0 -3 98 -3 97 41 0 c33 0 40 3 40 19 0
16 -8 20 -37 23 -38 3 -38 3 -41 51 -3 42 -6 47 -27 47 -18 0 -25 -7 -30 -32z"/>
<path d="M8545 5558 c-12 -60 -16 -68 -36 -68 -12 0 -19 -7 -19 -20 0 -13 7
-20 20 -20 19 0 20 -7 20 -105 0 -94 2 -107 21 -126 18 -18 30 -20 70 -17 27
3 53 8 56 12 14 14 -15 41 -43 41 l-29 0 -3 98 -3 97 41 0 c33 0 40 3 40 19 0
16 -8 20 -37 23 -38 3 -38 3 -41 51 -3 42 -6 47 -27 47 -18 0 -25 -7 -30 -32z"/>
<path d="M4210 5381 c0 -114 1 -121 26 -150 22 -27 32 -31 72 -31 26 0 56 7
66 15 25 19 36 19 36 0 0 -10 10 -15 30 -15 l30 0 0 150 0 150 -35 0 -35 0 0
-109 c0 -102 -2 -111 -22 -125 -27 -19 -69 -21 -86 -4 -8 8 -12 50 -12 125 l0
113 -35 0 -35 0 0 -119z"/>
<path d="M4590 5493 c-34 -13 -60 -47 -60 -79 0 -43 25 -70 85 -91 60 -22 73
-55 30 -75 -21 -9 -32 -8 -60 5 -32 15 -35 15 -51 0 -15 -16 -15 -18 6 -35 16
-13 39 -18 82 -18 52 0 63 3 89 29 54 55 32 117 -50 142 -22 7 -48 20 -57 30
-36 40 28 62 97 34 23 -9 34 24 15 43 -15 15 -100 26 -126 15z"/>
<path d="M5054 5486 c-41 -18 -50 -34 -31 -53 14 -14 19 -14 53 2 52 24 88 12
92 -32 3 -31 2 -32 -45 -39 -53 -7 -93 -24 -113 -49 -18 -22 -15 -73 6 -96 22
-24 100 -26 133 -2 22 15 25 15 36 0 7 -10 22 -17 34 -17 20 0 21 4 21 110 0
63 -5 120 -12 135 -23 51 -106 70 -174 41z m116 -185 c0 -20 -8 -35 -22 -45
-41 -29 -88 -15 -88 25 0 21 12 29 54 40 52 12 56 11 56 -20z"/>
<path d="M5310 5350 l0 -150 35 0 35 0 0 150 0 150 -35 0 -35 0 0 -150z"/>
<path d="M5460 5350 l0 -150 35 0 35 0 0 110 c0 106 1 110 25 126 33 21 73 11
85 -22 6 -14 10 -68 10 -120 l0 -94 30 0 30 0 0 121 c0 120 0 121 -29 150 -35
35 -81 38 -128 10 -31 -19 -31 -19 -36 0 -3 13 -14 19 -31 19 l-26 0 0 -150z"/>
<path d="M5825 5484 c-43 -22 -47 -28 -31 -49 13 -19 15 -19 54 -1 47 21 79
14 93 -21 14 -38 13 -39 -53 -51 -82 -15 -112 -38 -116 -86 -5 -54 18 -76 77
-76 25 1 57 7 71 15 32 18 40 18 40 0 0 -9 9 -15 25 -15 l25 0 0 110 c0 63 -5
120 -12 135 -23 52 -111 72 -173 39z m120 -165 c21 -33 -35 -86 -81 -77 -30 6
-40 34 -20 57 16 17 32 23 83 30 6 0 15 -4 18 -10z"/>
<path d="M6420 5350 l0 -150 35 0 35 0 0 150 0 150 -35 0 -35 0 0 -150z"/>
<path d="M6710 5350 l0 -150 35 0 35 0 0 150 0 150 -35 0 -35 0 0 -150z"/>
<path d="M7043 5488 c3 -7 31 -70 61 -140 l57 -128 -26 -49 c-14 -28 -25 -55
-25 -61 0 -11 39 -13 56 -2 6 4 42 79 79 167 37 88 74 175 81 193 l14 32 -34
0 c-34 0 -35 -1 -71 -95 -21 -53 -40 -93 -43 -90 -3 3 -22 45 -41 93 -36 87
-36 87 -75 90 -29 3 -37 0 -33 -10z"/>
<path d="M7539 5471 c-54 -55 -32 -117 50 -142 22 -7 49 -21 58 -31 17 -19 17
-21 -6 -39 -23 -19 -64 -18 -85 2 -16 14 -30 10 -44 -11 -10 -17 -8 -21 18
-35 16 -8 52 -15 80 -15 44 0 56 5 81 29 21 21 29 39 29 64 0 41 -18 59 -85
84 -41 15 -50 23 -50 43 0 21 5 26 32 28 18 2 41 -1 51 -7 15 -8 23 -6 37 9
16 18 15 19 -14 34 -16 9 -51 16 -76 16 -38 0 -52 -5 -76 -29z"/>
<path d="M8022 5480 c-28 -17 -31 -23 -22 -40 13 -23 17 -24 50 -5 52 30 97
15 102 -35 3 -20 -3 -24 -61 -36 -77 -16 -111 -44 -111 -91 0 -46 30 -73 81
-73 22 0 54 8 71 18 28 16 30 16 39 0 6 -10 19 -18 30 -18 20 0 21 5 17 126
-3 124 -3 126 -31 150 -37 31 -117 33 -165 4z m135 -166 c15 -39 -51 -84 -94
-65 -36 17 -28 53 17 68 49 17 70 16 77 -3z"/>
<path d="M8290 5350 l0 -150 35 0 35 0 0 95 c0 89 2 98 26 121 18 19 32 24 48
20 23 -6 35 12 36 52 0 20 -65 15 -85 -8 -10 -11 -22 -20 -27 -20 -4 0 -8 9
-8 20 0 16 -7 20 -30 20 l-30 0 0 -150z"/>
<path d="M8765 5488 c-32 -17 -45 -39 -45 -78 0 -44 17 -62 85 -87 37 -14 51
-24 53 -41 5 -33 -38 -46 -85 -27 -33 14 -38 14 -52 0 -14 -13 -14 -17 1 -31
22 -22 109 -30 149 -14 41 17 63 66 48 108 -8 24 -23 36 -75 58 -53 22 -64 31
-62 48 2 16 11 22 40 24 20 2 46 -2 57 -8 16 -8 22 -7 31 9 8 16 6 23 -12 35
-26 18 -103 21 -133 4z"/>
<path d="M9502 5480 c-85 -52 -81 -198 7 -257 44 -29 113 -31 159 -3 35 22 39
32 18 49 -11 10 -22 9 -46 -4 -58 -30 -130 2 -130 57 0 15 13 18 98 20 92 3
97 4 100 26 6 40 -18 92 -52 113 -41 25 -111 25 -154 -1z m131 -52 c27 -32 16
-43 -48 -46 -66 -4 -82 6 -65 37 23 44 79 48 113 9z"/>
<path d="M9770 5350 l0 -150 35 0 35 0 0 104 c0 97 2 106 22 120 12 9 35 16
50 16 24 0 28 4 28 30 0 27 -3 30 -33 30 -22 0 -41 -8 -53 -21 l-18 -20 -8 20
c-5 14 -16 21 -33 21 l-25 0 0 -150z"/>
<path d="M10022 5480 c-85 -52 -81 -198 7 -257 44 -29 113 -31 159 -3 35 22
39 32 18 49 -11 10 -22 9 -46 -4 -58 -30 -130 2 -130 57 0 15 13 18 98 20 92
3 97 4 100 26 6 40 -18 92 -52 113 -41 25 -111 25 -154 -1z m131 -52 c27 -32
16 -43 -48 -46 -66 -4 -82 6 -65 37 23 44 79 48 113 9z"/>
<path d="M1766 5154 c-9 -8 -16 -19 -16 -24 0 -5 7 -16 16 -24 14 -14 107 -16
872 -16 471 0 867 3 879 6 27 7 39 40 23 59 -11 13 -134 15 -886 15 -780 0
-874 -2 -888 -16z"/>
</g>
</svg>
